<svg width="3073" height="2021" xmlns="http://www.w3.org/2000/svg" xmlns:xlink="http://www.w3.org/1999/xlink" xml:space="preserve" overflow="hidden"><defs><clipPath id="clip0"><rect x="2931" y="566" width="3073" height="2021"/></clipPath></defs><g clip-path="url(#clip0)" transform="translate(-2931 -566)"><rect x="2932" y="567" width="3070" height="2018" fill="#FFFFFF"/><g><path d="M3201.5 2110.57 5742.5 2110.57M3201.5 1945.56 5742.5 1945.56M3201.5 1779.56 5742.5 1779.56M3201.5 1613.55 5742.5 1613.55M3201.5 1447.55 5742.5 1447.55M3201.5 1281.54 5742.5 1281.54M3201.5 1115.54 5742.5 1115.54M3201.5 949.531 5742.5 949.531M3201.5 783.526 5742.5 783.526M3201.5 617.5 5742.5 617.5" stroke="#D9D9D9" stroke-width="3.4375" stroke-linejoin="round" stroke-miterlimit="10" fill="none"/></g><g><path d="M3201.5 2277.5 5742.5 2277.5" stroke="#D9D9D9" stroke-width="3.4375" stroke-linejoin="round" stroke-miterlimit="10" fill="none" fill-rule="evenodd"/></g><g><path d="M3202 2277C3286.67 2221.7 3371.33 2166.4 3456 2111.1 3540.67 2055.8 3625.33 2000.5 3710 1945.2 3794.67 1889.9 3879.33 1834.6 3964 1779.3 4048.67 1724 4133.33 1668.7 4218 1613.4 4302.67 1558.1 4387.33 1502.8 4472 1447.5 4556.67 1392.2 4641.33 1336.9 4726 1281.6 4810.67 1226.3 4895.33 1171 4980 1115.7 5064.67 1060.4 5149.33 1005.1 5234 949.8 5318.67 894.5 5403.33 839.2 5488 783.9 5572.67 728.6 5657.33 673.3 5742 618" stroke="#156082" stroke-width="10.3125" stroke-linecap="round" stroke-linejoin="round" stroke-miterlimit="10" fill="none"/></g><g><path d="M3212.69 2277.69C3212.69 2283.76 3207.76 2288.69 3201.69 2288.69 3195.61 2288.69 3190.69 2283.76 3190.69 2277.69 3190.69 2271.61 3195.61 2266.69 3201.69 2266.69 3207.76 2266.69 3212.69 2271.61 3212.69 2277.69Z" stroke="#156082" stroke-width="3.4375" stroke-linejoin="round" stroke-miterlimit="10" fill="#156082"/><path d="M3466.69 2111.69C3466.69 2117.76 3461.76 2122.69 3455.69 2122.69 3449.61 2122.69 3444.69 2117.76 3444.69 2111.69 3444.69 2105.61 3449.61 2100.69 3455.69 2100.69 3461.76 2100.69 3466.69 2105.61 3466.69 2111.69Z" stroke="#156082" stroke-width="3.4375" stroke-linejoin="round" stroke-miterlimit="10" fill="#156082"/><path d="M3720.69 1945.69C3720.69 1951.76 3715.76 1956.69 3709.69 1956.69 3703.61 1956.69 3698.69 1951.76 3698.69 1945.69 3698.69 1939.61 3703.61 1934.69 3709.69 1934.69 3715.76 1934.69 3720.69 1939.61 3720.69 1945.69Z" stroke="#156082" stroke-width="3.4375" stroke-linejoin="round" stroke-miterlimit="10" fill="#156082"/><path d="M3974.69 1779.69C3974.69 1785.76 3969.76 1790.69 3963.69 1790.69 3957.61 1790.69 3952.69 1785.76 3952.69 1779.69 3952.69 1773.61 3957.61 1768.69 3963.69 1768.69 3969.76 1768.69 3974.69 1773.61 3974.69 1779.69Z" stroke="#156082" stroke-width="3.4375" stroke-linejoin="round" stroke-miterlimit="10" fill="#156082"/><path d="M4229.69 1613.69C4229.69 1619.76 4224.76 1624.69 4218.69 1624.69 4212.61 1624.69 4207.69 1619.76 4207.69 1613.69 4207.69 1607.61 4212.61 1602.69 4218.69 1602.69 4224.76 1602.69 4229.69 1607.61 4229.69 1613.69Z" stroke="#156082" stroke-width="3.4375" stroke-linejoin="round" stroke-miterlimit="10" fill="#156082"/><path d="M4483.69 1447.69C4483.69 1453.76 4478.76 1458.69 4472.69 1458.69 4466.61 1458.69 4461.69 1453.76 4461.69 1447.69 4461.69 1441.61 4466.61 1436.69 4472.69 1436.69 4478.76 1436.69 4483.69 1441.61 4483.69 1447.69Z" stroke="#156082" stroke-width="3.4375" stroke-linejoin="round" stroke-miterlimit="10" fill="#156082"/><path d="M4737.69 1281.69C4737.69 1287.76 4732.76 1292.69 4726.69 1292.69 4720.61 1292.69 4715.69 1287.76 4715.69 1281.69 4715.69 1275.61 4720.61 1270.69 4726.69 1270.69 4732.76 1270.69 4737.69 1275.61 4737.69 1281.69Z" stroke="#156082" stroke-width="3.4375" stroke-linejoin="round" stroke-miterlimit="10" fill="#156082"/><path d="M4991.69 1115.69C4991.69 1121.76 4986.76 1126.69 4980.69 1126.69 4974.61 1126.69 4969.69 1121.76 4969.69 1115.69 4969.69 1109.61 4974.61 1104.69 4980.69 1104.69 4986.76 1104.69 4991.69 1109.61 4991.69 1115.69Z" stroke="#156082" stroke-width="3.4375" stroke-linejoin="round" stroke-miterlimit="10" fill="#156082"/><path d="M5245.69 949.687C5245.69 955.762 5240.76 960.686 5234.69 960.686 5228.61 960.686 5223.69 955.762 5223.69 949.687 5223.69 943.612 5228.61 938.687 5234.69 938.687 5240.76 938.687 5245.69 943.612 5245.69 949.687Z" stroke="#156082" stroke-width="3.4375" stroke-linejoin="round" stroke-miterlimit="10" fill="#156082"/><path d="M5499.69 783.687C5499.69 789.762 5494.76 794.686 5488.69 794.686 5482.61 794.686 5477.69 789.762 5477.69 783.687 5477.69 777.612 5482.61 772.687 5488.69 772.687 5494.76 772.687 5499.69 777.612 5499.69 783.687Z" stroke="#156082" stroke-width="3.4375" stroke-linejoin="round" stroke-miterlimit="10" fill="#156082"/><path d="M5753.69 617.687C5753.69 623.762 5748.76 628.686 5742.69 628.686 5736.61 628.686 5731.69 623.762 5731.69 617.687 5731.69 611.612 5736.61 606.687 5742.69 606.687 5748.76 606.687 5753.69 611.612 5753.69 617.687Z" stroke="#156082" stroke-width="3.4375" stroke-linejoin="round" stroke-miterlimit="10" fill="#156082"/></g><g><path d="M3202 2277C3286.67 2261.48 3371.33 2243.87 3456 2230.43 3540.67 2217 3625.33 2227.43 3710 2196.39 3794.67 2165.35 3879.33 2083.98 3964 2044.18 4048.67 2004.39 4133.33 1991.17 4218 1957.62 4302.67 1924.08 4387.33 1894.5 4472 1842.92 4556.67 1791.33 4641.33 1713.15 4726 1648.09 4810.67 1583.03 4895.33 1519.11 4980 1452.56 5064.67 1386.01 5149.33 1327.88 5234 1248.78 5318.67 1169.69 5403.33 1066.95 5488 977.991 5572.67 889.026 5657.33 802.663 5742 715" stroke="#E97132" stroke-width="10.3125" stroke-linecap="round" stroke-linejoin="round" stroke-miterlimit="10" fill="none"/></g><g><path d="M3212.69 2277.69C3212.69 2283.76 3207.76 2288.69 3201.69 2288.69 3195.61 2288.69 3190.69 2283.76 3190.69 2277.69 3190.69 2271.61 3195.61 2266.69 3201.69 2266.69 3207.76 2266.69 3212.69 2271.61 3212.69 2277.69Z" stroke="#E97132" stroke-width="3.4375" stroke-linejoin="round" stroke-miterlimit="10" fill="#E97132"/><path d="M3466.69 2230.69C3466.69 2236.76 3461.76 2241.69 3455.69 2241.69 3449.61 2241.69 3444.69 2236.76 3444.69 2230.69 3444.69 2224.61 3449.61 2219.69 3455.69 2219.69 3461.76 2219.69 3466.69 2224.61 3466.69 2230.69Z" stroke="#E97132" stroke-width="3.4375" stroke-linejoin="round" stroke-miterlimit="10" fill="#E97132"/><path d="M3720.69 2196.69C3720.69 2202.76 3715.76 2207.69 3709.69 2207.69 3703.61 2207.69 3698.69 2202.76 3698.69 2196.69 3698.69 2190.61 3703.61 2185.69 3709.69 2185.69 3715.76 2185.69 3720.69 2190.61 3720.69 2196.69Z" stroke="#E97132" stroke-width="3.4375" stroke-linejoin="round" stroke-miterlimit="10" fill="#E97132"/><path d="M3974.69 2044.69C3974.69 2050.76 3969.76 2055.69 3963.69 2055.69 3957.61 2055.69 3952.69 2050.76 3952.69 2044.69 3952.69 2038.61 3957.61 2033.69 3963.69 2033.69 3969.76 2033.69 3974.69 2038.61 3974.69 2044.69Z" stroke="#E97132" stroke-width="3.4375" stroke-linejoin="round" stroke-miterlimit="10" fill="#E97132"/><path d="M4229.69 1957.69C4229.69 1963.76 4224.76 1968.69 4218.69 1968.69 4212.61 1968.69 4207.69 1963.76 4207.69 1957.69 4207.69 1951.61 4212.61 1946.69 4218.69 1946.69 4224.76 1946.69 4229.69 1951.61 4229.69 1957.69Z" stroke="#E97132" stroke-width="3.4375" stroke-linejoin="round" stroke-miterlimit="10" fill="#E97132"/><path d="M4483.69 1843.69C4483.69 1849.76 4478.76 1854.69 4472.69 1854.69 4466.61 1854.69 4461.69 1849.76 4461.69 1843.69 4461.69 1837.61 4466.61 1832.69 4472.69 1832.69 4478.76 1832.69 4483.69 1837.61 4483.69 1843.69Z" stroke="#E97132" stroke-width="3.4375" stroke-linejoin="round" stroke-miterlimit="10" fill="#E97132"/><path d="M4737.69 1648.69C4737.69 1654.76 4732.76 1659.69 4726.69 1659.69 4720.61 1659.69 4715.69 1654.76 4715.69 1648.69 4715.69 1642.61 4720.61 1637.69 4726.69 1637.69 4732.76 1637.69 4737.69 1642.61 4737.69 1648.69Z" stroke="#E97132" stroke-width="3.4375" stroke-linejoin="round" stroke-miterlimit="10" fill="#E97132"/><path d="M4991.69 1452.69C4991.69 1458.76 4986.76 1463.69 4980.69 1463.69 4974.61 1463.69 4969.69 1458.76 4969.69 1452.69 4969.69 1446.61 4974.61 1441.69 4980.69 1441.69 4986.76 1441.69 4991.69 1446.61 4991.69 1452.69Z" stroke="#E97132" stroke-width="3.4375" stroke-linejoin="round" stroke-miterlimit="10" fill="#E97132"/><path d="M5245.69 1249.69C5245.69 1255.76 5240.76 1260.69 5234.69 1260.69 5228.61 1260.69 5223.69 1255.76 5223.69 1249.69 5223.69 1243.61 5228.61 1238.69 5234.69 1238.69 5240.76 1238.69 5245.69 1243.61 5245.69 1249.69Z" stroke="#E97132" stroke-width="3.4375" stroke-linejoin="round" stroke-miterlimit="10" fill="#E97132"/><path d="M5499.69 978.687C5499.69 984.762 5494.76 989.687 5488.69 989.687 5482.61 989.687 5477.69 984.762 5477.69 978.687 5477.69 972.612 5482.61 967.687 5488.69 967.687 5494.76 967.687 5499.69 972.612 5499.69 978.687Z" stroke="#E97132" stroke-width="3.4375" stroke-linejoin="round" stroke-miterlimit="10" fill="#E97132"/><path d="M5753.69 715.687C5753.69 721.762 5748.76 726.687 5742.69 726.687 5736.61 726.687 5731.69 721.762 5731.69 715.687 5731.69 709.612 5736.61 704.688 5742.69 704.688 5748.76 704.688 5753.69 709.612 5753.69 715.687Z" stroke="#E97132" stroke-width="3.4375" stroke-linejoin="round" stroke-miterlimit="10" fill="#E97132"/></g><g><text fill="#404040" font-family="Aptos Narrow,Aptos Narrow_MSFontService,sans-serif" font-weight="700" font-stretch="semi-condensed" font-size="48" transform="matrix(1 0 0 1 3240.71 2293)">1.00</text></g><g><text fill="#404040" font-family="Aptos Narrow,Aptos Narrow_MSFontService,sans-serif" font-weight="700" font-stretch="semi-condensed" font-size="48" transform="matrix(1 0 0 1 3494.78 2246)">1.12</text></g><g><text fill="#404040" font-family="Aptos Narrow,Aptos Narrow_MSFontService,sans-serif" font-weight="700" font-stretch="semi-condensed" font-size="48" transform="matrix(1 0 0 1 3748.86 2212)">1.22</text></g><g><text fill="#404040" font-family="Aptos Narrow,Aptos Narrow_MSFontService,sans-serif" font-weight="700" font-stretch="semi-condensed" font-size="48" transform="matrix(1 0 0 1 4002.93 2060)">1.79</text></g><g><text fill="#404040" font-family="Aptos Narrow,Aptos Narrow_MSFontService,sans-serif" font-weight="700" font-stretch="semi-condensed" font-size="48" transform="matrix(1 0 0 1 4257 1973)">2.23</text></g><g><text fill="#404040" font-family="Aptos Narrow,Aptos Narrow_MSFontService,sans-serif" font-weight="700" font-stretch="semi-condensed" font-size="48" transform="matrix(1 0 0 1 4511.08 1859)">2.97</text></g><g><text fill="#404040" font-family="Aptos Narrow,Aptos Narrow_MSFontService,sans-serif" font-weight="700" font-stretch="semi-condensed" font-size="48" transform="matrix(1 0 0 1 4765.15 1664)">4.83</text></g><g><text fill="#404040" font-family="Aptos Narrow,Aptos Narrow_MSFontService,sans-serif" font-weight="700" font-stretch="semi-condensed" font-size="48" transform="matrix(1 0 0 1 5019.22 1468)">7.89</text></g><g><text fill="#404040" font-family="Aptos Narrow,Aptos Narrow_MSFontService,sans-serif" font-weight="700" font-stretch="semi-condensed" font-size="48" transform="matrix(1 0 0 1 5273.3 1265)">13.15</text></g><g><text fill="#404040" font-family="Aptos Narrow,Aptos Narrow_MSFontService,sans-serif" font-weight="700" font-stretch="semi-condensed" font-size="48" transform="matrix(1 0 0 1 5527.37 994)">25.91</text></g><g><text fill="#404040" font-family="Aptos Narrow,Aptos Narrow_MSFontService,sans-serif" font-weight="700" font-stretch="semi-condensed" font-size="48" transform="matrix(1 0 0 1 5781.44 731)">50.09</text></g><g><text fill="#595959" font-family="Aptos Narrow,Aptos Narrow_MSFontService,sans-serif" font-weight="400" font-stretch="semi-condensed" font-size="41" transform="matrix(1 0 0 1 5780.57 2289)">1.00</text></g><g><text fill="#595959" font-family="Aptos Narrow,Aptos Narrow_MSFontService,sans-serif" font-weight="400" font-stretch="semi-condensed" font-size="41" transform="matrix(1 0 0 1 5780.57 2012)">2.00</text></g><g><text fill="#595959" font-family="Aptos Narrow,Aptos Narrow_MSFontService,sans-serif" font-weight="400" font-stretch="semi-condensed" font-size="41" transform="matrix(1 0 0 1 5780.57 1735)">4.00</text></g><g><text fill="#595959" font-family="Aptos Narrow,Aptos Narrow_MSFontService,sans-serif" font-weight="400" font-stretch="semi-condensed" font-size="41" transform="matrix(1 0 0 1 5780.57 1459)">8.00</text></g><g><text fill="#595959" font-family="Aptos Narrow,Aptos Narrow_MSFontService,sans-serif" font-weight="400" font-stretch="semi-condensed" font-size="41" transform="matrix(1 0 0 1 5780.57 1182)">16.00</text></g><g><text fill="#595959" font-family="Aptos Narrow,Aptos Narrow_MSFontService,sans-serif" font-weight="400" font-stretch="semi-condensed" font-size="41" transform="matrix(1 0 0 1 5780.57 906)">32.00</text></g><g><text fill="#595959" font-family="Aptos Narrow,Aptos Narrow_MSFontService,sans-serif" font-weight="400" font-stretch="semi-condensed" font-size="41" transform="matrix(1 0 0 1 5780.57 629)">64.00</text></g><g><text fill="#595959" font-family="Aptos Narrow,Aptos Narrow_MSFontService,sans-serif" font-weight="400" font-stretch="semi-condensed" font-size="41" transform="matrix(1 0 0 1 3121.87 2289)">64</text></g><g><text fill="#595959" font-family="Aptos Narrow,Aptos Narrow_MSFontService,sans-serif" font-weight="400" font-stretch="semi-condensed" font-size="41" transform="matrix(1 0 0 1 3100.97 2123)">128</text></g><g><text fill="#595959" font-family="Aptos Narrow,Aptos Narrow_MSFontService,sans-serif" font-weight="400" font-stretch="semi-condensed" font-size="41" transform="matrix(1 0 0 1 3100.97 1957)">256</text></g><g><text fill="#595959" font-family="Aptos Narrow,Aptos Narrow_MSFontService,sans-serif" font-weight="400" font-stretch="semi-condensed" font-size="41" transform="matrix(1 0 0 1 3100.97 1791)">512</text></g><g><text fill="#595959" font-family="Aptos Narrow,Aptos Narrow_MSFontService,sans-serif" font-weight="400" font-stretch="semi-condensed" font-size="41" transform="matrix(1 0 0 1 3080.07 1625)">1024</text></g><g><text fill="#595959" font-family="Aptos Narrow,Aptos Narrow_MSFontService,sans-serif" font-weight="400" font-stretch="semi-condensed" font-size="41" transform="matrix(1 0 0 1 3080.07 1459)">2048</text></g><g><text fill="#595959" font-family="Aptos Narrow,Aptos Narrow_MSFontService,sans-serif" font-weight="400" font-stretch="semi-condensed" font-size="41" transform="matrix(1 0 0 1 3080.07 1293)">4096</text></g><g><text fill="#595959" font-family="Aptos Narrow,Aptos Narrow_MSFontService,sans-serif" font-weight="400" font-stretch="semi-condensed" font-size="41" transform="matrix(1 0 0 1 3080.07 1127)">8192</text></g><g><text fill="#595959" font-family="Aptos Narrow,Aptos Narrow_MSFontService,sans-serif" font-weight="400" font-stretch="semi-condensed" font-size="41" transform="matrix(1 0 0 1 3059.17 961)">16384</text></g><g><text fill="#595959" font-family="Aptos Narrow,Aptos Narrow_MSFontService,sans-serif" font-weight="400" font-stretch="semi-condensed" font-size="41" transform="matrix(1 0 0 1 3059.17 795)">32768</text></g><g><text fill="#595959" font-family="Aptos Narrow,Aptos Narrow_MSFontService,sans-serif" font-weight="400" font-stretch="semi-condensed" font-size="41" transform="matrix(1 0 0 1 3059.17 629)">65536</text></g><g><text fill="#595959" font-family="Aptos Narrow,Aptos Narrow_MSFontService,sans-serif" font-weight="400" font-stretch="semi-condensed" font-size="41" transform="matrix(1 0 0 1 3180.85 2342)">64</text></g><g><text fill="#595959" font-family="Aptos Narrow,Aptos Narrow_MSFontService,sans-serif" font-weight="400" font-stretch="semi-condensed" font-size="41" transform="matrix(1 0 0 1 3424.48 2342)">128</text></g><g><text fill="#595959" font-family="Aptos Narrow,Aptos Narrow_MSFontService,sans-serif" font-weight="400" font-stretch="semi-condensed" font-size="41" transform="matrix(1 0 0 1 3678.55 2342)">256</text></g><g><text fill="#595959" font-family="Aptos Narrow,Aptos Narrow_MSFontService,sans-serif" font-weight="400" font-stretch="semi-condensed" font-size="41" transform="matrix(1 0 0 1 3932.62 2342)">512</text></g><g><text fill="#595959" font-family="Aptos Narrow,Aptos Narrow_MSFontService,sans-serif" font-weight="400" font-stretch="semi-condensed" font-size="41" transform="matrix(1 0 0 1 4176.25 2342)">1024</text></g><g><text fill="#595959" font-family="Aptos Narrow,Aptos Narrow_MSFontService,sans-serif" font-weight="400" font-stretch="semi-condensed" font-size="41" transform="matrix(1 0 0 1 4430.32 2342)">2048</text></g><g><text fill="#595959" font-family="Aptos Narrow,Aptos Narrow_MSFontService,sans-serif" font-weight="400" font-stretch="semi-condensed" font-size="41" transform="matrix(1 0 0 1 4684.39 2342)">4096</text></g><g><text fill="#595959" font-family="Aptos Narrow,Aptos Narrow_MSFontService,sans-serif" font-weight="400" font-stretch="semi-condensed" font-size="41" transform="matrix(1 0 0 1 4938.46 2342)">8192</text></g><g><text fill="#595959" font-family="Aptos Narrow,Aptos Narrow_MSFontService,sans-serif" font-weight="400" font-stretch="semi-condensed" font-size="41" transform="matrix(1 0 0 1 5182.09 2342)">16384</text></g><g><text fill="#595959" font-family="Aptos Narrow,Aptos Narrow_MSFontService,sans-serif" font-weight="400" font-stretch="semi-condensed" font-size="41" transform="matrix(1 0 0 1 5436.16 2342)">32768</text></g><g><text fill="#595959" font-family="Aptos Narrow,Aptos Narrow_MSFontService,sans-serif" font-weight="400" font-stretch="semi-condensed" font-size="41" transform="matrix(1 0 0 1 5690.23 2342)">65536</text></g><g><text fill="#595959" font-family="Aptos Narrow,Aptos Narrow_MSFontService,sans-serif" font-weight="400" font-stretch="semi-condensed" font-size="46" transform="matrix(6.12323e-17 -1 1 6.12323e-17 5931.63 1583)">Average Factor</text></g><g><text fill="#595959" font-family="Aptos Narrow,Aptos Narrow_MSFontService,sans-serif" font-weight="400" font-stretch="semi-condensed" font-size="46" transform="matrix(6.12323e-17 -1 1 6.12323e-17 3032.47 1588)">Number of Bins</text></g><g><text fill="#595959" font-family="Aptos Narrow,Aptos Narrow_MSFontService,sans-serif" font-weight="400" font-stretch="semi-condensed" font-size="46" transform="matrix(1 0 0 1 4331.6 2410)">Number of Bins</text></g><g><path d="M4207 2519 4295 2519" stroke="#156082" stroke-width="10.3125" stroke-linecap="round" stroke-linejoin="round" stroke-miterlimit="10" fill="none" fill-rule="evenodd"/></g><g><path d="M4261 2518C4261 2524.07 4256.08 2529 4250 2529 4243.92 2529 4239 2524.07 4239 2518 4239 2511.92 4243.92 2507 4250 2507 4256.08 2507 4261 2511.92 4261 2518Z" stroke="#156082" stroke-width="3.4375" stroke-linejoin="round" stroke-miterlimit="10" fill="#156082"/></g><g><text fill="#595959" font-family="Aptos Narrow,Aptos Narrow_MSFontService,sans-serif" font-weight="400" font-stretch="semi-condensed" font-size="41" transform="matrix(1 0 0 1 4303.82 2530)">BINS</text></g><g><path d="M4432 2519 4520 2519" stroke="#E97132" stroke-width="10.3125" stroke-linecap="round" stroke-linejoin="round" stroke-miterlimit="10" fill="none" fill-rule="evenodd"/></g><g><path d="M4486 2518C4486 2524.07 4481.08 2529 4475 2529 4468.92 2529 4464 2524.07 4464 2518 4464 2511.92 4468.92 2507 4475 2507 4481.08 2507 4486 2511.92 4486 2518Z" stroke="#E97132" stroke-width="3.4375" stroke-linejoin="round" stroke-miterlimit="10" fill="#E97132"/></g><g><text fill="#595959" font-family="Aptos Narrow,Aptos Narrow_MSFontService,sans-serif" font-weight="400" font-stretch="semi-condensed" font-size="41" transform="matrix(1 0 0 1 4529.01 2530)">AVG FACTOR</text></g><rect x="2932.5" y="567.5" width="3070" height="2018" stroke="#D9D9D9" stroke-width="3.4375" stroke-linejoin="round" stroke-miterlimit="10" fill="none"/></g></svg>